<svg width="40" height="38" viewBox="0 0 40 38" fill="none" xmlns="http://www.w3.org/2000/svg">
<path d="M3.75 0C1.67969 0 0 1.82366 0 4.07143V33.9286C0 36.1763 1.67969 38 3.75 38H36.25C38.3203 38 40 36.1763 40 33.9286V4.07143C40 1.82366 38.3203 0 36.25 0H3.75ZM3.75 2.71429H12.0312C12.2891 2.71429 12.5 2.9433 12.5 3.22321V4.91964C12.5 5.19955 12.2891 5.42857 12.0312 5.42857H2.96875C2.71094 5.42857 2.5 5.19955 2.5 4.91964V4.07143C2.5 3.325 3.0625 2.71429 3.75 2.71429ZM37.0312 10.8571H2.96875C2.71094 10.8571 2.5 10.6281 2.5 10.3482V7.29464C2.5 7.01473 2.71094 6.78571 2.96875 6.78571H13.75L16.1094 2.9433C16.1953 2.79911 16.3438 2.71429 16.5 2.71429H36.25C36.9375 2.71429 37.5 3.325 37.5 4.07143V10.3482C37.5 10.6281 37.2891 10.8571 37.0312 10.8571ZM20 33.25C14.8281 33.25 10.625 28.6866 10.625 23.0714C10.625 17.4562 14.8281 12.8929 20 12.8929C25.1719 12.8929 29.375 17.4562 29.375 23.0714C29.375 28.6866 25.1719 33.25 20 33.25ZM20 15.6071C16.2109 15.6071 13.125 18.9576 13.125 23.0714C13.125 27.1853 16.2109 30.5357 20 30.5357C23.7891 30.5357 26.875 27.1853 26.875 23.0714C26.875 18.9576 23.7891 15.6071 20 15.6071ZM16.25 24.4286C15.5625 24.4286 15 23.8179 15 23.0714C15 20.0772 17.2422 17.6429 20 17.6429C20.6875 17.6429 21.25 18.2536 21.25 19C21.25 19.7464 20.6875 20.3571 20 20.3571C18.625 20.3571 17.5 21.5786 17.5 23.0714C17.5 23.8179 16.9375 24.4286 16.25 24.4286Z" fill="black"/>
</svg>
